<svg width="47" height="47" viewBox="0 0 47 47" fill="none" xmlns="http://www.w3.org/2000/svg">
<path id="Vector" d="M3.83228 33.114V39.2786" stroke="white" stroke-width="1.5" stroke-miterlimit="10" stroke-linecap="round"/>
<path id="Vector_2" d="M42.3609 39.2785V14.6202C42.3609 13.7685 41.6715 13.0791 40.8197 13.0791H26.9495" stroke="white" stroke-width="1.5" stroke-miterlimit="10" stroke-linecap="round"/>
<path id="Vector_3" d="M23.8671 13.0791V0.75H6.91456L0.75 6.91456V30.0317H11.538" stroke="white" stroke-width="1.5" stroke-linecap="round" stroke-linejoin="round"/>
<path id="Vector_4" d="M6.91456 4.60285V6.91456H0.75L6.91456 0.75" stroke="white" stroke-width="1.5" stroke-linecap="round" stroke-linejoin="round"/>
<path id="Vector_5" d="M33.1277 25.4084V29.2613C33.1277 33.0916 30.0228 36.1964 26.1926 36.1964H23.8809" stroke="white" stroke-width="1.5" stroke-linecap="round" stroke-linejoin="round"/>
<path id="Vector_6" d="M23.8805 36.1965V39.2788L16.1748 34.6554L23.8805 30.032V33.1143" stroke="white" stroke-width="1.5" stroke-linecap="round" stroke-linejoin="round"/>
<path id="Vector_7" d="M14.6204 30.0319V26.179C14.6204 22.3487 17.7251 19.2439 21.5555 19.2439H23.8672" stroke="white" stroke-width="1.5" stroke-linecap="round" stroke-linejoin="round"/>
<path id="Vector_8" d="M23.8672 19.2439V16.1616L31.5729 20.785L23.8672 25.4085V22.3262" stroke="white" stroke-width="1.5" stroke-linecap="round" stroke-linejoin="round"/>
<path id="Vector_9" d="M17.7025 42.3608H0.75C0.75 44.063 2.13006 45.4431 3.83228 45.4431H42.3608C44.063 45.4431 45.4431 44.063 45.4431 42.3608H28.4905" stroke="white" stroke-width="1.5" stroke-linecap="round" stroke-linejoin="round"/>
<path id="Vector_10" d="M5.37329 13.0791H19.2436" stroke="white" stroke-width="1.5" stroke-linecap="round" stroke-linejoin="round"/>
<path id="Vector_11" d="M9.99683 6.91455H19.2437" stroke="white" stroke-width="1.5" stroke-linecap="round" stroke-linejoin="round"/>
<path id="Vector_12" d="M5.37329 16.1614H11.5379" stroke="white" stroke-width="1.5" stroke-linecap="round" stroke-linejoin="round"/>
<path id="Vector_13" d="M13.0791 9.99683H19.2437" stroke="white" stroke-width="1.5" stroke-linecap="round" stroke-linejoin="round"/>
<path id="Vector_14" d="M5.37329 9.99683H9.99671" stroke="white" stroke-width="1.5" stroke-linecap="round" stroke-linejoin="round"/>
<path id="Vector_15" d="M23.8672 33.114H25.4083" stroke="white" stroke-width="1.5" stroke-linecap="round" stroke-linejoin="round"/>
<path id="Vector_16" d="M22.3259 22.3262H23.8671" stroke="white" stroke-width="1.5" stroke-linecap="round" stroke-linejoin="round"/>
</svg>
