<svg width="47" height="46" viewBox="0 0 47 46" fill="none" xmlns="http://www.w3.org/2000/svg">
<path id="Vector" d="M11.4775 7.90535V0.907178C11.4775 0.819449 11.5489 0.75 11.6348 0.75H41.3397C41.4275 0.75 41.497 0.821277 41.497 0.907178V9.5393C41.497 9.62702 41.4257 9.69648 41.3397 9.69648H14.1311" stroke="white" stroke-width="1.5" stroke-miterlimit="10"/>
<path id="Vector_2" d="M14.1313 5.22412H28.8823" stroke="white" stroke-width="1.5" stroke-miterlimit="10"/>
<path id="Vector_3" d="M31.8066 5.22412H33.544" stroke="white" stroke-width="1.5" stroke-miterlimit="10"/>
<path id="Vector_4" d="M34.731 5.22412H36.4665" stroke="white" stroke-width="1.5" stroke-miterlimit="10"/>
<path id="Vector_5" d="M37.6533 5.22412H39.3907" stroke="white" stroke-width="1.5" stroke-miterlimit="10"/>
<path id="Vector_6" d="M20.7258 12.575H41.3417C41.4295 12.575 41.499 12.6462 41.499 12.7321V21.3642C41.499 21.452 41.4277 21.5214 41.3417 21.5214H20.7258" stroke="white" stroke-width="1.5" stroke-miterlimit="10"/>
<path id="Vector_7" d="M24.1238 17.0471H28.8823" stroke="white" stroke-width="1.5" stroke-miterlimit="10"/>
<path id="Vector_8" d="M31.8064 17.0471H33.5437" stroke="white" stroke-width="1.5" stroke-miterlimit="10"/>
<path id="Vector_9" d="M34.7305 17.0471H36.466" stroke="white" stroke-width="1.5" stroke-miterlimit="10"/>
<path id="Vector_10" d="M37.6531 17.0471H39.3904" stroke="white" stroke-width="1.5" stroke-miterlimit="10"/>
<path id="Vector_11" d="M20.7296 24.3982H41.34C41.4278 24.3982 41.4973 24.4695 41.4973 24.5554V33.1875C41.4973 33.2752 41.426 33.3447 41.34 33.3447H14.936" stroke="white" stroke-width="1.5" stroke-miterlimit="10"/>
<path id="Vector_12" d="M21.5068 28.8704H28.8823" stroke="white" stroke-width="1.5" stroke-miterlimit="10"/>
<path id="Vector_13" d="M31.8066 28.8704H33.544" stroke="white" stroke-width="1.5" stroke-miterlimit="10"/>
<path id="Vector_14" d="M34.731 28.8704H36.4665" stroke="white" stroke-width="1.5" stroke-miterlimit="10"/>
<path id="Vector_15" d="M37.6533 28.8704H39.3907" stroke="white" stroke-width="1.5" stroke-miterlimit="10"/>
<path id="Vector_16" d="M26.4883 9.69824V12.575" stroke="white" stroke-width="1.5" stroke-miterlimit="10"/>
<path id="Vector_17" d="M26.4883 21.5215V24.3982" stroke="white" stroke-width="1.5" stroke-miterlimit="10"/>
<path id="Vector_18" d="M26.4883 33.3447V40.1071" stroke="white" stroke-width="1.5" stroke-miterlimit="10"/>
<path id="Vector_19" d="M24.1236 42.5215H11.4775" stroke="white" stroke-width="1.5" stroke-miterlimit="10"/>
<path id="Vector_20" d="M41.5299 42.5215H28.8821" stroke="white" stroke-width="1.5" stroke-miterlimit="10"/>
<path id="Vector_21" d="M11.4775 42.5215C11.4775 43.8265 10.4186 44.8829 9.11473 44.8829C7.8108 44.8829 6.75195 43.8246 6.75195 42.5215C6.75195 41.2184 7.8108 40.1602 9.11473 40.1602C10.4186 40.1602 11.4775 41.2184 11.4775 42.5215Z" stroke="white" stroke-width="1.5" stroke-miterlimit="10"/>
<path id="Vector_22" d="M28.7755 43.0537C29.0753 41.7845 28.2887 40.5127 27.0187 40.2131C25.7486 39.9135 24.4761 40.6996 24.1763 41.9689C23.8765 43.2382 24.6631 44.5099 25.9331 44.8095C27.2032 45.1091 28.4757 44.323 28.7755 43.0537Z" stroke="white" stroke-width="1.5" stroke-miterlimit="10"/>
<path id="Vector_23" d="M46.2246 42.5215C46.2246 43.8265 45.1657 44.8829 43.8618 44.8829C42.5579 44.8829 41.499 43.8246 41.499 42.5215C41.499 41.2184 42.5579 40.1602 43.8618 40.1602C45.1657 40.1602 46.2246 41.2184 46.2246 42.5215Z" stroke="white" stroke-width="1.5" stroke-miterlimit="10"/>
<path id="Vector_24" d="M12.9955 29.7863L9.57205 32.1897L6.27294 29.874C2.81105 27.4432 0.75 23.479 0.75 19.2516V14.7847L0.848761 14.7664C3.68703 14.2382 6.38082 13.1124 8.7491 11.4638L9.62875 10.8516L10.2085 11.2701C12.5475 12.9607 15.2212 14.1341 18.0485 14.7134L18.3923 14.7847V19.4033C18.3923 23.5356 16.3788 27.4103 12.9937 29.7863H12.9955Z" stroke="white" stroke-width="1.5" stroke-miterlimit="10" stroke-linecap="square"/>
<path id="Vector_25" d="M12.7028 17.4768L8.10707 22.0698L6.44289 20.4084L4.69458 22.1557L6.35694 23.817L8.10707 25.5643L14.4511 19.2241L12.7028 17.4768Z" stroke="white" stroke-width="1.5" stroke-miterlimit="10" stroke-linecap="square"/>
</svg>
