<svg width="46" height="46" viewBox="0 0 46 46" fill="none" xmlns="http://www.w3.org/2000/svg">
<path id="Vector" d="M33.5825 11.9277H11.926V33.5842H33.5825V11.9277Z" stroke="#03102C" stroke-width="1.5" stroke-linecap="round" stroke-linejoin="round"/>
<path id="Vector_2" d="M28.2314 28.0928V17.4211" stroke="#03102C" stroke-width="1.5" stroke-linecap="round" stroke-linejoin="round"/>
<path id="Vector_3" d="M16.4036 28.0927L20.1411 17.5283H21.0015L24.3077 28.0927" stroke="#03102C" stroke-width="1.5" stroke-linecap="round" stroke-linejoin="round"/>
<path id="Vector_4" d="M23.0729 24.1406H17.8027" stroke="#03102C" stroke-width="1.5" stroke-linecap="round" stroke-linejoin="round"/>
<path id="Vector_5" d="M22.7551 33.8005V40.1851" stroke="#03102C" stroke-width="1.5" stroke-linecap="round" stroke-linejoin="round"/>
<path id="Vector_6" d="M24.3729 44.0905C25.2665 43.197 25.2665 41.7483 24.3729 40.8548C23.4794 39.9612 22.0307 39.9612 21.1372 40.8548C20.2436 41.7483 20.2436 43.197 21.1372 44.0905C22.0307 44.9841 23.4794 44.9841 24.3729 44.0905Z" stroke="#03102C" stroke-width="1.5" stroke-linecap="round" stroke-linejoin="round"/>
<path id="Vector_7" d="M18.6543 33.8032V37.4882L15.2693 40.8753" stroke="#03102C" stroke-width="1.5" stroke-linecap="round" stroke-linejoin="round"/>
<path id="Vector_8" d="M26.854 33.8032V37.4882L30.239 40.8753" stroke="#03102C" stroke-width="1.5" stroke-linecap="round" stroke-linejoin="round"/>
<path id="Vector_9" d="M22.7551 11.713V5.32837" stroke="#03102C" stroke-width="1.5" stroke-linecap="round" stroke-linejoin="round"/>
<path id="Vector_10" d="M24.9771 3.5666C25.2687 2.33704 24.5083 1.10394 23.2787 0.812375C22.0492 0.520814 20.8161 1.28121 20.5245 2.51076C20.2329 3.74032 20.9933 4.97342 22.2229 5.26498C23.4524 5.55654 24.6855 4.79615 24.9771 3.5666Z" stroke="#03102C" stroke-width="1.5" stroke-linecap="round" stroke-linejoin="round"/>
<path id="Vector_11" d="M15.2693 4.63892L18.6543 8.02609V11.711" stroke="#03102C" stroke-width="1.5" stroke-linecap="round" stroke-linejoin="round"/>
<path id="Vector_12" d="M30.239 4.63892L26.854 8.02609V11.711" stroke="#03102C" stroke-width="1.5" stroke-linecap="round" stroke-linejoin="round"/>
<path id="Vector_13" d="M11.7091 22.7568H5.32666" stroke="#03102C" stroke-width="1.5" stroke-linecap="round" stroke-linejoin="round"/>
<path id="Vector_14" d="M3.56656 24.9869C4.79611 24.6954 5.5565 23.4623 5.26494 22.2327C4.97338 21.0032 3.74028 20.2428 2.51073 20.5343C1.28118 20.8259 0.52078 22.059 0.812341 23.2886C1.1039 24.5181 2.33701 25.2785 3.56656 24.9869Z" stroke="#03102C" stroke-width="1.5" stroke-linecap="round" stroke-linejoin="round"/>
<path id="Vector_15" d="M11.7091 18.6557H8.02413L4.63696 15.2708" stroke="#03102C" stroke-width="1.5" stroke-linecap="round" stroke-linejoin="round"/>
<path id="Vector_16" d="M11.7091 26.8555H8.02413L4.63696 30.2404" stroke="#03102C" stroke-width="1.5" stroke-linecap="round" stroke-linejoin="round"/>
<path id="Vector_17" d="M33.7991 22.7568H40.1837" stroke="#03102C" stroke-width="1.5" stroke-linecap="round" stroke-linejoin="round"/>
<path id="Vector_18" d="M44.0893 24.3742C44.9828 23.4807 44.9828 22.032 44.0893 21.1385C43.1957 20.2449 41.747 20.2449 40.8535 21.1385C39.96 22.032 39.9599 23.4807 40.8535 24.3742C41.747 25.2678 43.1957 25.2678 44.0893 24.3742Z" stroke="#03102C" stroke-width="1.5" stroke-linecap="round" stroke-linejoin="round"/>
<path id="Vector_19" d="M40.8734 15.2708L37.4862 18.6557H33.7991" stroke="#03102C" stroke-width="1.5" stroke-linecap="round" stroke-linejoin="round"/>
<path id="Vector_20" d="M40.8734 30.2404L37.4862 26.8555H33.7991" stroke="#03102C" stroke-width="1.5" stroke-linecap="round" stroke-linejoin="round"/>
</svg>
