<svg width="47" height="49" viewBox="0 0 47 49" fill="none" xmlns="http://www.w3.org/2000/svg">
<path id="Vector" d="M1.6579 17.9896C1.39474 16.1704 1.26001 14.3185 1.26001 12.4465V6.60767" stroke="#03102C" stroke-width="1.5" stroke-linecap="round" stroke-linejoin="round"/>
<path id="Vector_2" d="M33.5422 40.113C30.5668 43.0306 27.094 45.4926 23.2133 47.3609C19.4648 45.5568 16.0978 43.1979 13.1904 40.4099" stroke="#03102C" stroke-width="1.5" stroke-linecap="round" stroke-linejoin="round"/>
<path id="Vector_3" d="M1.26001 6.60767L23.2134 0.75L45.1668 6.60767V12.4465C45.1668 14.2204 45.046 15.9754 44.8092 17.7028" stroke="#03102C" stroke-width="1.5" stroke-linecap="round" stroke-linejoin="round"/>
<path id="Vector_4" d="M21.3057 10.9669C21.3057 12.498 20.0629 13.7397 18.5306 13.7397C16.9982 13.7397 15.7554 12.498 15.7554 10.9669C15.7554 9.43579 16.9982 8.19531 18.5306 8.19531C20.0629 8.19531 21.3057 9.43705 21.3057 10.9669Z" stroke="#03102C" stroke-width="1.5" stroke-linecap="round" stroke-linejoin="round"/>
<path id="Vector_5" d="M21.7213 16.231C21.1988 16.0926 20.6674 16.0134 20.1348 15.9555C19.0683 15.841 17.993 15.841 16.9264 15.9555C16.3926 16.0134 15.8625 16.0939 15.3399 16.231C14.806 16.3719 14.3338 16.6437 13.9548 17.006" stroke="#03102C" stroke-width="1.5" stroke-linecap="round" stroke-linejoin="round"/>
<path id="Vector_6" d="M22.6872 16.7518C22.4039 16.5279 22.079 16.3505 21.7227 16.231" stroke="#03102C" stroke-width="1.5" stroke-linecap="round" stroke-linejoin="round"/>
<path id="Vector_7" d="M18.9335 38.8336C18.6817 38.5254 18.5306 38.1316 18.5306 37.7039M18.5306 37.7039V34.2517M18.5306 37.7039C18.5306 38.6902 17.7298 39.4904 16.7426 39.4904C15.7554 39.4904 14.9546 38.6902 14.9546 37.7039V30.2522" stroke="#03102C" stroke-width="1.5" stroke-linecap="round" stroke-linejoin="round"/>
<path id="Vector_8" d="M28.5787 15.7867C29.989 15.7867 31.1323 14.6443 31.1323 13.2352C31.1323 11.8261 29.989 10.6838 28.5787 10.6838C27.1684 10.6838 26.0251 11.8261 26.0251 13.2352C26.0251 14.6443 27.1684 15.7867 28.5787 15.7867Z" stroke="#03102C" stroke-width="1.5" stroke-linecap="round" stroke-linejoin="round"/>
<path id="Vector_9" d="M31.8712 32.0085V37.8461C31.8712 38.7544 31.1346 39.4904 30.2255 39.4904C29.3164 39.4904 28.5798 38.7544 28.5798 37.8461M28.5798 37.8461V32.0085M28.5798 37.8461C28.5798 38.382 28.3229 38.8576 27.9263 39.1583" stroke="#03102C" stroke-width="1.5" stroke-linecap="round" stroke-linejoin="round"/>
<path id="Vector_10" d="M31.0706 31.9783H32.1799" stroke="#03102C" stroke-width="1.5" stroke-linecap="round" stroke-linejoin="round"/>
<path id="Vector_11" d="M33.8859 22.3628L33.4188 20.2883C33.1506 19.1031 32.2125 18.1797 31.0201 17.9381C30.2394 17.7796 29.3945 17.7067 28.5786 17.7029C27.7614 17.7067 26.9165 17.7796 26.1371 17.9381C25.0932 18.1495 24.2458 18.883 23.8706 19.8567" stroke="#03102C" stroke-width="1.5" stroke-linecap="round" stroke-linejoin="round"/>
<path id="Vector_12" d="M31.583 24.4539L32.1219 26.6241" stroke="#03102C" stroke-width="1.5" stroke-linecap="round" stroke-linejoin="round"/>
<path id="Vector_13" d="M31.583 24.4538L31.8625 21.8257" stroke="#03102C" stroke-width="1.5" stroke-linecap="round" stroke-linejoin="round"/>
<path id="Vector_14" d="M5.14331 16.0155C5.14331 17.5982 6.42639 18.8802 8.01041 18.8802C9.59443 18.8802 10.8775 17.5982 10.8775 16.0155C10.8775 14.4329 9.59443 13.1509 8.01041 13.1509C6.42639 13.1509 5.14331 14.4329 5.14331 16.0155Z" stroke="#03102C" stroke-width="1.5" stroke-linecap="round" stroke-linejoin="round"/>
<path id="Vector_15" d="M12.2926 18.8816C13.1879 19.4779 13.757 20.4945 13.757 21.6154V27.3951C13.757 28.204 13.101 28.8595 12.2913 28.8595C11.4817 28.8595 10.8257 28.204 10.8257 27.3951V22.5363" stroke="#03102C" stroke-width="1.5" stroke-linecap="round" stroke-linejoin="round"/>
<path id="Vector_16" d="M5.19352 22.5361V27.3949C5.19352 28.2038 4.5375 28.8593 3.72786 28.8593C2.91822 28.8593 2.26221 28.2038 2.26221 27.3949V21.6152C2.26221 20.493 2.83134 19.4777 3.72786 18.8801" stroke="#03102C" stroke-width="1.5" stroke-linecap="round" stroke-linejoin="round"/>
<path id="Vector_17" d="M11.7071 28.8594V38.0283C11.7071 39.0487 10.8799 39.8752 9.8587 39.8752C8.83752 39.8752 8.01025 39.0487 8.01025 38.0283V30.13" stroke="#03102C" stroke-width="1.5" stroke-linecap="round" stroke-linejoin="round"/>
<path id="Vector_18" d="M8.01036 30.6926V38.0286C8.01036 39.0489 7.1831 39.8754 6.16192 39.8754C5.14074 39.8754 4.31348 39.0489 4.31348 38.0286V33.2717" stroke="#03102C" stroke-width="1.5" stroke-linecap="round" stroke-linejoin="round"/>
<path id="Vector_19" d="M4.31342 30.6396C4.31342 29.657 3.51511 28.8594 2.5317 28.8594C1.5483 28.8594 0.75 29.657 0.75 30.6396V39.6437" stroke="#03102C" stroke-width="1.5" stroke-linecap="round" stroke-linejoin="round"/>
<path id="Vector_20" d="M40.1843 17.2121C41.4646 17.2121 42.5024 16.1752 42.5024 14.896C42.5024 13.6168 41.4646 12.5798 40.1843 12.5798C38.9041 12.5798 37.8662 13.6168 37.8662 14.896C37.8662 16.1752 38.9041 17.2121 40.1843 17.2121Z" stroke="#03102C" stroke-width="1.5" stroke-linecap="round" stroke-linejoin="round"/>
<path id="Vector_21" d="M43.1157 24.2789V29.0672C43.1157 29.7214 43.6458 30.251 44.3005 30.251C44.9553 30.251 45.4854 29.7214 45.4854 29.0672V22.2936C45.4854 21.0871 44.672 20.0328 43.5047 19.7259C42.6309 19.4956 41.7356 19.3799 40.8391 19.3799" stroke="#03102C" stroke-width="1.5" stroke-linecap="round" stroke-linejoin="round"/>
<path id="Vector_22" d="M43.8271 30.251V37.6636C43.8271 38.4877 43.1585 39.157 42.3325 39.157" stroke="#03102C" stroke-width="1.5" stroke-linecap="round" stroke-linejoin="round"/>
<path id="Vector_23" d="M24.6953 23.5971C24.6953 24.4174 24.0292 25.0829 23.2083 25.0829C22.3873 25.0829 21.7212 24.4174 21.7212 23.5971C21.7212 22.7769 22.3873 22.1113 23.2083 22.1113C24.0292 22.1113 24.6953 22.7769 24.6953 23.5971Z" stroke="#03102C" stroke-width="1.5" stroke-linecap="round" stroke-linejoin="round"/>
<path id="Vector_24" d="M21.8497 30.1024C21.8497 30.1024 21.8497 31.0573 21.851 32.0235C21.851 32.5997 21.3838 33.0677 20.8072 33.0665C20.2317 33.0665 19.7671 32.5997 19.7671 32.0248V28.8644C19.7671 28.0832 20.2859 27.3962 21.0376 27.1824C21.5979 27.0352 22.6178 26.9609 23.192 26.9609C23.7662 26.9609 24.7861 27.0352 25.3464 27.1824C26.0981 27.3975 26.6169 28.0832 26.6169 28.8644V32.0248C26.6169 32.5997 26.151 33.0652 25.5768 33.0665C25.0014 33.0665 24.533 32.6022 24.533 32.026C24.533 31.0598 24.5317 30.1024 24.5317 30.1024" stroke="#03102C" stroke-width="1.5" stroke-linecap="round" stroke-linejoin="round"/>
<path id="Vector_25" d="M20.8689 33.3989V37.6727C20.8689 38.313 21.3889 38.8326 22.0298 38.8326C22.6708 38.8326 23.1908 38.313 23.1908 37.6727V34.7036" stroke="#03102C" stroke-width="1.5" stroke-linecap="round" stroke-linejoin="round"/>
<path id="Vector_26" d="M23.1907 34.7035V37.6726C23.1907 38.313 23.7107 38.8326 24.3516 38.8326C24.9925 38.8326 25.5126 38.313 25.5126 37.6726V33.3599" stroke="#03102C" stroke-width="1.5" stroke-linecap="round" stroke-linejoin="round"/>
<path id="Vector_27" d="M39.0774 20.9235C39.0774 21.7438 38.4113 22.4094 37.5903 22.4094C36.7694 22.4094 36.1033 21.7438 36.1033 20.9235C36.1033 20.1033 36.7694 19.4377 37.5903 19.4377C38.4113 19.4377 39.0774 20.1033 39.0774 20.9235Z" stroke="#03102C" stroke-width="1.5" stroke-linecap="round" stroke-linejoin="round"/>
<path id="Vector_28" d="M36.2318 27.4293C36.2318 27.4293 36.2318 29.7203 36.2331 30.6865C36.2331 31.2627 35.7659 31.7307 35.1892 31.7295C34.6138 31.7295 34.1492 31.2627 34.1492 30.6878V26.1913C34.1492 25.4101 34.6679 24.7231 35.4197 24.5093C35.98 24.3621 36.9999 24.2878 37.5741 24.2878C38.1483 24.2878 39.1682 24.3621 39.7285 24.5093C40.4802 24.7244 40.999 25.4101 40.999 26.1913V30.6878C40.999 31.2627 40.5331 31.7282 39.9589 31.7295C39.3835 31.7295 38.9151 31.2652 38.9151 30.689C38.9151 29.7228 38.9138 27.4293 38.9138 27.4293" stroke="#03102C" stroke-width="1.5" stroke-linecap="round" stroke-linejoin="round"/>
<path id="Vector_29" d="M35.1653 32.0613V37.6296C35.1653 38.2939 35.7042 38.8323 36.369 38.8323C37.0339 38.8323 37.5728 38.2939 37.5728 37.6296V34.7033" stroke="#03102C" stroke-width="1.5" stroke-linecap="round" stroke-linejoin="round"/>
<path id="Vector_30" d="M37.5728 33.3598V37.631C37.5728 38.2953 38.1117 38.8337 38.7765 38.8337C39.4413 38.8337 39.9803 38.2953 39.9803 37.631V32.0237" stroke="#03102C" stroke-width="1.5" stroke-linecap="round" stroke-linejoin="round"/>
</svg>
