<svg xmlns="http://www.w3.org/2000/svg" viewBox="0 0 629.52 43.45"><g id="Layer_2" data-name="Layer 2"><g id="Layer_1-2" data-name="Layer 1"><path d="M2,32a24.31,24.31,0,0,0,10.49,2.51c3.71,0,5.51-1.25,5.51-3.29s-1.8-3.06-6.35-4.62C4.85,24.15.3,20.44.3,14.44.3,7.31,6.35,1.8,16.54,1.8a26.9,26.9,0,0,1,10.91,2l-2.28,8.69a21,21,0,0,0-8.75-1.92c-3.29,0-5.09,1.2-5.09,3,0,2,2.16,2.81,7.25,4.73,7.25,2.7,10.49,6.53,10.49,12.17,0,7-5.4,12.88-17.2,12.88A28.61,28.61,0,0,1,0,40.94Z"/><path d="M57,42.14c-1.73.83-4.79,1.25-8.09,1.25-9.83,0-16-5.75-16-15.1,0-8.39,5.81-15.58,17.32-15.58a22,22,0,0,1,6.77,1L55.5,21.64a12.23,12.23,0,0,0-4.68-.72,6.53,6.53,0,0,0-6.83,7c0,4.8,3.29,7.07,7.13,7.07a12.66,12.66,0,0,0,4.74-.78Z"/><path d="M87.38,35.6a42.83,42.83,0,0,0,.48,7.19H78.09l-.54-2.57h-.24c-2,2.34-5,3.23-8.15,3.23-6.06,0-9.77-4.37-9.77-9.29,0-7.91,7.13-11.44,17.14-11.44v-.24c0-1.2-.9-2.52-4.85-2.52a18.74,18.74,0,0,0-8.34,2.16l-1.85-6.78a26.3,26.3,0,0,1,12.22-2.69c10.13,0,13.67,5.63,13.67,13ZM76.89,29.31c-4.44,0-6.89,1.2-6.89,3.84C70,35,71.2,36,73.05,36a4,4,0,0,0,3.72-2.69,6.59,6.59,0,0,0,.12-1.56Z"/><path d="M93.37.18h10.85V42.79H93.37Z"/><path d="M119.08,31.83c.36,2.33,3.77,3.65,7.61,3.65a26,26,0,0,0,8-1.14l1.38,7.2a30.45,30.45,0,0,1-11,1.85c-10.37,0-16.24-5.69-16.24-15,0-6.83,4.44-15.7,15.28-15.7,9.53,0,13.61,7,13.61,15.1a19.18,19.18,0,0,1-.42,4.08Zm8.69-7.32c0-1.67-.78-4.79-4.2-4.79-3.17,0-4.43,2.94-4.61,4.79Z"/><path d="M165.1,4.92v8.39h6.12v7.91H165.1v8.45c0,3.48.78,4.91,3.42,4.91a8.19,8.19,0,0,0,2.58-.24v8.22a20.76,20.76,0,0,1-6.42.83,10.47,10.47,0,0,1-7.37-2.69c-1.8-1.8-2.75-4.68-2.75-9.17V21.22H150.9V13.31h3.66V7.79Z"/><path d="M175.59.18h10.85V16.42h.12a10.23,10.23,0,0,1,8-3.77c6.65,0,10.37,4.73,10.37,13.06V42.79H194.05V26.91c0-3.47-1.14-5.57-3.84-5.57a3.67,3.67,0,0,0-3.53,2.34,5.69,5.69,0,0,0-.24,1.73V42.79H175.59Z"/><path d="M219.7,31.83c.36,2.33,3.78,3.65,7.61,3.65a26,26,0,0,0,8-1.14l1.38,7.2a30.42,30.42,0,0,1-11,1.85c-10.37,0-16.24-5.69-16.24-15,0-6.83,4.44-15.7,15.28-15.7,9.53,0,13.61,7,13.61,15.1a19.18,19.18,0,0,1-.42,4.08Zm8.69-7.32c0-1.67-.78-4.79-4.19-4.79-3.18,0-4.44,2.94-4.62,4.79Z"/><path d="M284.49,41.72c-1.5.78-5.34,1.67-10.13,1.67-15.11,0-21.76-9.41-21.76-20.13C252.6,9.05,263,1.8,275.08,1.8a25.45,25.45,0,0,1,10.07,1.74l-2.1,8.57a19.48,19.48,0,0,0-7.49-1.44c-6.18,0-11.57,3.66-11.57,11.87,0,7.31,4.37,11.86,11.8,11.86a22.65,22.65,0,0,0,7.2-1.13Z"/><path d="M302.22,43.45c-8.81,0-15.64-5.57-15.64-15.16,0-9.41,6.17-15.64,16.24-15.64,9.23,0,15.35,6.23,15.35,15.1,0,10.73-7.68,15.7-15.89,15.7Zm.3-7.61c2.94,0,4.5-3.05,4.5-7.79,0-4.08-1.32-7.79-4.5-7.79-3.59,0-4.79,3.89-4.79,7.79,0,4.44,1.44,7.79,4.73,7.79Z"/><path d="M322.72,23.38c0-4-.12-7.32-.24-10.07h9.35l.48,3.77h.18a10.71,10.71,0,0,1,8.87-4.43c6.89,0,10.67,4.67,10.67,12.76V42.79H341.18V26.73c0-3.41-1.14-5.39-3.78-5.39a3.71,3.71,0,0,0-3.53,2.58,5.79,5.79,0,0,0-.3,2.15V42.79H322.72Z"/><path d="M365.69,13.31l3.17,12.52c.6,2.34,1,4.62,1.38,7h.18c.36-2.4.72-4.5,1.32-7l2.94-12.52H386L375.28,42.79H364.43L353.94,13.31Z"/><path d="M397,31.83c.36,2.33,3.78,3.65,7.61,3.65a26.06,26.06,0,0,0,8-1.14l1.37,7.2a30.42,30.42,0,0,1-11,1.85c-10.36,0-16.24-5.69-16.24-15,0-6.83,4.44-15.7,15.29-15.7,9.53,0,13.6,7,13.6,15.1a19.18,19.18,0,0,1-.42,4.08Zm8.69-7.32c0-1.67-.78-4.79-4.19-4.79-3.18,0-4.44,2.94-4.62,4.79Z"/><path d="M419.86,23.26c0-4.68-.06-7.5-.24-10h9.23l.42,5.33h.24a8.42,8.42,0,0,1,7.85-6,8.07,8.07,0,0,1,2.16.18V23a11.74,11.74,0,0,0-2.76-.3c-3.17,0-5.33,1.31-5.93,3.71a15.25,15.25,0,0,0-.12,1.86V42.79H419.86Z"/><path d="M443.72,33.68a19.36,19.36,0,0,0,8.15,2.22c2.33,0,3.23-.48,3.23-1.62s-.66-1.49-3.83-2.51c-6.54-2-8.75-5.58-8.69-9,0-5.88,5-10.13,12.82-10.13a23,23,0,0,1,8.75,1.68l-1.73,7.31A17.1,17.1,0,0,0,455.88,20C454,20,453,20.5,453,21.7c0,1,.95,1.56,4.43,2.69,5.81,1.86,8,4.92,8.09,9.11,0,5.64-4.37,9.89-13.48,9.89a23.15,23.15,0,0,1-10.13-2.09Z"/><path d="M496.1,35.6a42.83,42.83,0,0,0,.48,7.19h-9.77l-.54-2.57H486c-2,2.34-5,3.23-8.15,3.23-6.06,0-9.77-4.37-9.77-9.29,0-7.91,7.13-11.44,17.14-11.44v-.24c0-1.2-.9-2.52-4.86-2.52a18.73,18.73,0,0,0-8.33,2.16l-1.86-6.78a26.39,26.39,0,0,1,12.23-2.69c10.13,0,13.67,5.63,13.67,13Zm-10.49-6.29c-4.44,0-6.9,1.2-6.9,3.84,0,1.85,1.2,2.81,3.06,2.81a4,4,0,0,0,3.72-2.69,6.59,6.59,0,0,0,.12-1.56Z"/><path d="M513.41,4.92v8.39h6.12v7.91h-6.12v8.45c0,3.48.78,4.91,3.42,4.91a8.19,8.19,0,0,0,2.58-.24v8.22a20.76,20.76,0,0,1-6.42.83,10.47,10.47,0,0,1-7.37-2.69c-1.8-1.8-2.75-4.68-2.75-9.17V21.22h-3.66V13.31h3.66V7.79Z"/><path d="M529.29,10.25c-3.35,0-5.45-2.28-5.45-5.1,0-3,2.16-5.15,5.52-5.15s5.45,2.16,5.51,5.15c0,2.82-2.16,5.1-5.51,5.1ZM523.9,42.79V13.31h10.85V42.79Z"/><path d="M555,43.45c-8.81,0-15.64-5.57-15.64-15.16,0-9.41,6.18-15.64,16.24-15.64,9.23,0,15.35,6.23,15.35,15.1,0,10.73-7.67,15.7-15.88,15.7Zm.3-7.61c2.94,0,4.5-3.05,4.5-7.79,0-4.08-1.32-7.79-4.5-7.79-3.59,0-4.79,3.89-4.79,7.79,0,4.44,1.44,7.79,4.74,7.79Z"/><path d="M575.5,23.38c0-4-.12-7.32-.24-10.07h9.35l.48,3.77h.18a10.71,10.71,0,0,1,8.87-4.43c6.89,0,10.67,4.67,10.67,12.76V42.79H594V26.73c0-3.41-1.14-5.39-3.78-5.39a3.72,3.72,0,0,0-3.53,2.58,5.79,5.79,0,0,0-.3,2.15V42.79H575.5Z"/><path d="M607.21,4.41H604V1.56h9.91V4.41H610.6v9.8h-3.39Z"/><path d="M626.08,9.66C626,8.24,626,6.55,626,4.58H626c-.39,1.67-.92,3.56-1.33,4.95l-1.26,4.41h-2.64l-1.05-4.41c-.34-1.35-.72-3.23-1-4.95h0c-.07,1.78-.13,3.66-.18,5.08l-.21,4.55H615.1l.79-12.65h4.56L621.28,5c.36,1.39.73,3.08,1,4.62h.06c.36-1.54.77-3.32,1.15-4.66l.95-3.37h4.45l.64,12.65h-3.29Z"/></g></g></svg>